<?xml version="1.0" encoding="utf-8"?>
<!-- Generator: Adobe Illustrator 24.1.1, SVG Export Plug-In . SVG Version: 6.00 Build 0)  -->
<svg version="1.1" id="Capa_1" xmlns="http://www.w3.org/2000/svg" xmlns:xlink="http://www.w3.org/1999/xlink" x="0px" y="0px"
	 viewBox="0 0 1920 919" style="enable-background:new 0 0 1920 919;" xml:space="preserve">
<style type="text/css">
	.st0{fill:#A4F4F2;}
</style>
<path id="Trazado_4052" class="st0" d="M-264.24,556.51c-2.05-12.09,13.25-22.76,22.66-33.81c26.95-31.69,53.9-63.39,80.85-95.08
	C-105.65,362.86-50.57,298.1,4.5,233.33C76.6,148.54,147.57,54.59,276.75,24.11c126.73-29.9,255.01,24.74,372.23,51.87
	c140.4,32.49,281.13,64.15,422.17,94.97C1440.42,251.64,1812.2,326.03,2184.59,398l-348.66,353.22
	c-57.39,58.14-126.4,113.05-212.41,140.35c-102.38,32.51-202.57,9.66-300.79-12.43c-104.98-23.61-209.5-49.37-315.23-70.92
	C631.1,731.54,252.13,661.35-127.24,594.17c-32.28-5.72-64.56-11.41-96.87-17.07c-11.37-1.99-31.77-5.46-37.77-14.75
	C-263.05,560.59-263.86,558.6-264.24,556.51z"/>
</svg>
