<?xml version="1.0" encoding="utf-8"?>
<!-- Generator: Adobe Illustrator 24.1.1, SVG Export Plug-In . SVG Version: 6.00 Build 0)  -->
<svg version="1.1" id="Capa_1" xmlns="http://www.w3.org/2000/svg" xmlns:xlink="http://www.w3.org/1999/xlink" x="0px" y="0px"
	 viewBox="0 0 15716 12303" style="enable-background:new 0 0 15716 12303;" xml:space="preserve">
<style type="text/css">
	.st0{fill:#FFC2B4;}
</style>
<g>
	<g>
		<g>
			<g>
				
					<image style="overflow:visible;" width="1074" height="3930" xlink:href="C9E5C784.png"  transform="matrix(1 0 0 1 10690 2092)">
				</image>
				<g>
					<path class="st0" d="M10695.95,2098c542.2,487.06,974.55,1151.53,1048.85,1899.31c67.54,679.57-160.86,1349.98-310.04,2017.19"
						/>
				</g>
			</g>
			<g>
				
					<image style="overflow:visible;" width="2239" height="6694" xlink:href="C9E5C785.png"  transform="matrix(1 0 0 1 3676 4364)">
				</image>
				<g>
					<path class="st0" d="M5907.32,11050.36c-1967.72-1518.13-2530.8-4248.97-2079.29-6680.54"/>
				</g>
			</g>
			<g>
				
					<image style="overflow:visible;" width="9180" height="10487" xlink:href="C9E5C783.png"  transform="matrix(1 0 0 1 3130 761)">
				</image>
				<g>
					<path class="st0" d="M10209,1295.05c-747.3-420.79-1598.55-596.17-2384.28-496.92c-1548,195.53-2851.33,1308.8-3695.88,2716.27
						c-734.77,1224.54-1172.54,2753.71-913.49,4281.53c438.38,2585.52,3062.91,4361.21,5056.67,2924.91
						c838.39-603.96,1206.53-1655.8,1577.15-2658.17c401.1-1084.85,1222.31-1274.31,1908.88-2058.9
						c915.27-1045.96,554.7-2480.41-275.57-3592.49C11132,1941.86,10692.24,1567.14,10209,1295.05z"/>
				</g>
			</g>
		</g>
	</g>
</g>
</svg>
